# xmcd CD database file
#
# Track frame offsets:
#	150
#	13682
#	26552
#	39257
#	54502
#	67570
#	80212
#	91962
#	111197
#	121725
#	138200
#	152890
#	165370
#	179667
#	191615
#	204222
#	215085
#	229457
#	242207
#	254925
#	275612
#	299120
#	317552
#	330212
#
# Disc length: 4678 seconds
#
# Revision: 0
# Processed by: cddbd v1.5.1PL0 Copyright (c) Steve Scherf et al.
# Submitted via: CDex 1.51
#
DISCID=5d124418
DTITLE=The George Lewis Band of New Orleans - Jazz at Preservation Hall/Jimmy Yancey - Pure Blues
DYEAR=1999
DGENRE=Jazz
TTITLE0=Salutation March
TTITLE1=Salty Dog
TTITLE2=Winin' Boy Blues
TTITLE3=Pork Chops
TTITLE4=Down By the Riverside
TTITLE5=Linger Awhile
TTITLE6=In The Sweet By and By
TTITLE7=Burgundy Street Blues
TTITLE8=Indian Sagua
TTITLE9=Careless Love
TTITLE10=Listen To the Mockingbird
TTITLE11=St. Louis Blues
TTITLE12=Mournful Blues
TTITLE13=Yancey Special
TTITLE14=How Long Blues
TTITLE15=Yancey's Bugle Call
TTITLE16=32th and Dearborn
TTITLE17=Shave 'em Dry
TTITLE18=Salute to Pinetop
TTITLE19=Make Me a Pallet On the Floor
TTITLE20=Four O'Clock Blues
TTITLE21=Monkey Woman Blues
TTITLE22=Sante Fe Blues
TTITLE23=How Long Blues
EXTD=YEAR: 1999
EXTT0=
EXTT1=
EXTT2=
EXTT3=
EXTT4=
EXTT5=
EXTT6=
EXTT7=
EXTT8=
EXTT9=
EXTT10=
EXTT11=
EXTT12=
EXTT13=
EXTT14=
EXTT15=
EXTT16=
EXTT17=
EXTT18=
EXTT19=
EXTT20=
EXTT21=
EXTT22=
EXTT23=
PLAYORDER=
